<svg width="275" height="27" viewBox="0 0 275 27" fill="none" xmlns="http://www.w3.org/2000/svg">
  <path d="M168.461 24.1441C167.893 24.1441 167.369 24.0401 166.889 23.8321C166.417 23.6161 166.029 23.3121 165.725 22.9201L166.805 21.6241C167.261 22.2401 167.781 22.5481 168.365 22.5481C169.157 22.5481 169.553 22.0841 169.553 21.1561V17.1601H166.601V15.6001H171.485V21.0481C171.485 22.0801 171.229 22.8561 170.717 23.3761C170.205 23.8881 169.453 24.1441 168.461 24.1441Z" fill="#2855AF"/>
  <path d="M176.165 24.1441C175.501 24.1441 174.857 24.0561 174.233 23.8801C173.617 23.6961 173.121 23.4601 172.745 23.1721L173.405 21.7081C173.765 21.9721 174.193 22.1841 174.689 22.3441C175.185 22.5041 175.681 22.5841 176.177 22.5841C176.729 22.5841 177.137 22.5041 177.401 22.3441C177.665 22.1761 177.797 21.9561 177.797 21.6841C177.797 21.4841 177.717 21.3201 177.557 21.1921C177.405 21.0561 177.205 20.9481 176.957 20.8681C176.717 20.7881 176.389 20.7001 175.973 20.6041C175.333 20.4521 174.809 20.3001 174.401 20.1481C173.993 19.9961 173.641 19.7521 173.345 19.4161C173.057 19.0801 172.913 18.6321 172.913 18.0721C172.913 17.5841 173.045 17.1441 173.309 16.7521C173.573 16.3521 173.969 16.0361 174.497 15.8041C175.033 15.5721 175.685 15.4561 176.453 15.4561C176.989 15.4561 177.513 15.5201 178.025 15.6481C178.537 15.7761 178.985 15.9601 179.369 16.2001L178.769 17.6761C177.993 17.2361 177.217 17.0161 176.441 17.0161C175.897 17.0161 175.493 17.1041 175.229 17.2801C174.973 17.4561 174.845 17.6881 174.845 17.9761C174.845 18.2641 174.993 18.4801 175.289 18.6241C175.593 18.7601 176.053 18.8961 176.669 19.0321C177.309 19.1841 177.833 19.3361 178.241 19.4881C178.649 19.6401 178.997 19.8801 179.285 20.2081C179.581 20.5361 179.729 20.9801 179.729 21.5401C179.729 22.0201 179.593 22.4601 179.321 22.8601C179.057 23.2521 178.657 23.5641 178.121 23.7961C177.585 24.0281 176.933 24.1441 176.165 24.1441Z" fill="#2855AF"/>
  <path d="M185.125 24.1441C184.253 24.1441 183.465 23.9561 182.761 23.5801C182.065 23.2041 181.517 22.6881 181.117 22.0321C180.725 21.3681 180.529 20.6241 180.529 19.8001C180.529 18.9761 180.725 18.2361 181.117 17.5801C181.517 16.9161 182.065 16.3961 182.761 16.0201C183.465 15.6441 184.253 15.4561 185.125 15.4561C185.997 15.4561 186.781 15.6441 187.477 16.0201C188.173 16.3961 188.721 16.9161 189.121 17.5801C189.521 18.2361 189.721 18.9761 189.721 19.8001C189.721 20.6241 189.521 21.3681 189.121 22.0321C188.721 22.6881 188.173 23.2041 187.477 23.5801C186.781 23.9561 185.997 24.1441 185.125 24.1441ZM185.125 22.4881C185.621 22.4881 186.069 22.3761 186.469 22.1521C186.869 21.9201 187.181 21.6001 187.405 21.1921C187.637 20.7841 187.753 20.3201 187.753 19.8001C187.753 19.2801 187.637 18.8161 187.405 18.4081C187.181 18.0001 186.869 17.6841 186.469 17.4601C186.069 17.2281 185.621 17.1121 185.125 17.1121C184.629 17.1121 184.181 17.2281 183.781 17.4601C183.381 17.6841 183.065 18.0001 182.833 18.4081C182.609 18.8161 182.497 19.2801 182.497 19.8001C182.497 20.3201 182.609 20.7841 182.833 21.1921C183.065 21.6001 183.381 21.9201 183.781 22.1521C184.181 22.3761 184.629 22.4881 185.125 22.4881Z" fill="#2855AF"/>
  <path d="M198.886 15.6001V24.0001H197.29L193.102 18.9001V24.0001H191.182V15.6001H192.79L196.966 20.7001V15.6001H198.886Z" fill="#2855AF"/>
  <path d="M209.804 22.2001H205.904L205.16 24.0001H203.168L206.912 15.6001H208.832L212.588 24.0001H210.548L209.804 22.2001ZM209.192 20.7241L207.86 17.5081L206.528 20.7241H209.192Z" fill="#2855AF"/>
  <path d="M217.096 15.6001C217.84 15.6001 218.484 15.7241 219.028 15.9721C219.58 16.2201 220.004 16.5721 220.3 17.0281C220.596 17.4841 220.744 18.0241 220.744 18.6481C220.744 19.2641 220.596 19.8041 220.3 20.2681C220.004 20.7241 219.58 21.0761 219.028 21.3241C218.484 21.5641 217.84 21.6841 217.096 21.6841H215.404V24.0001H213.46V15.6001H217.096ZM216.988 20.1001C217.572 20.1001 218.016 19.9761 218.32 19.7281C218.624 19.4721 218.776 19.1121 218.776 18.6481C218.776 18.1761 218.624 17.8161 218.32 17.5681C218.016 17.3121 217.572 17.1841 216.988 17.1841H215.404V20.1001H216.988Z" fill="#2855AF"/>
  <path d="M222.131 15.6001H224.075V24.0001H222.131V15.6001Z" fill="#2855AF"/>
  <path d="M232.179 15.6001V24.0001H230.235V17.1601H228.555V15.6001H232.179Z" fill="#2855AF"/>
  <path d="M234.743 24.0961C234.415 24.0961 234.139 23.9841 233.915 23.7601C233.691 23.5361 233.579 23.2561 233.579 22.9201C233.579 22.5761 233.691 22.3001 233.915 22.0921C234.139 21.8761 234.415 21.7681 234.743 21.7681C235.071 21.7681 235.347 21.8761 235.571 22.0921C235.795 22.3001 235.907 22.5761 235.907 22.9201C235.907 23.2561 235.795 23.5361 235.571 23.7601C235.347 23.9841 235.071 24.0961 234.743 24.0961Z" fill="#2855AF"/>
  <path d="M243.172 22.4161V24.0001H236.824V22.7401L240.064 19.6801C240.408 19.3521 240.64 19.0721 240.76 18.8401C240.88 18.6001 240.94 18.3641 240.94 18.1321C240.94 17.7961 240.824 17.5401 240.592 17.3641C240.368 17.1801 240.036 17.0881 239.596 17.0881C239.228 17.0881 238.896 17.1601 238.6 17.3041C238.304 17.4401 238.056 17.6481 237.856 17.9281L236.44 17.0161C236.768 16.5281 237.22 16.1481 237.796 15.8761C238.372 15.5961 239.032 15.4561 239.776 15.4561C240.4 15.4561 240.944 15.5601 241.408 15.7681C241.88 15.9681 242.244 16.2561 242.5 16.6321C242.764 17.0001 242.896 17.4361 242.896 17.9401C242.896 18.3961 242.8 18.8241 242.608 19.2241C242.416 19.6241 242.044 20.0801 241.492 20.5921L239.56 22.4161H243.172Z" fill="#2855AF"/>
  <path d="M47.0823 17.7956L45.1194 19.7825V24.1839H39.9203V6.57831H45.1194V13.8972L52.3079 6.57831H58.0906L50.5041 14.3751L58.4885 24.1839H52.3875L47.0823 17.7956Z" fill="#2855AF"/>
  <path d="M59.6824 5.52197H64.7223V24.1839H59.6824V5.52197Z" fill="#2855AF"/>
  <path d="M74.1797 10.3258C76.5671 10.3258 78.3885 10.8456 79.6441 11.8851C80.8997 12.9079 81.5274 14.4841 81.5274 16.6135V24.1839H76.8323V22.4233C76.1073 23.748 74.6926 24.4103 72.5882 24.4103C71.4741 24.4103 70.5103 24.2258 69.6969 23.8569C68.8834 23.4881 68.2645 22.9934 67.84 22.373C67.4333 21.7359 67.2299 21.0149 67.2299 20.2101C67.2299 18.919 67.7516 17.9213 68.795 17.2171C69.8383 16.4961 71.4476 16.1356 73.6227 16.1356H76.4875C76.3991 14.6936 75.3823 13.9727 73.437 13.9727C72.7473 13.9727 72.0488 14.0816 71.3415 14.2996C70.6341 14.5008 70.0328 14.7859 69.5377 15.1547L67.84 11.9103C68.6358 11.4073 69.5996 11.0216 70.7314 10.7533C71.8808 10.4683 73.0303 10.3258 74.1797 10.3258ZM73.9941 21.3922C74.5776 21.3922 75.0905 21.258 75.5326 20.9897C75.9747 20.7215 76.293 20.3274 76.4875 19.8077V18.6256H74.3124C72.8446 18.6256 72.1107 19.0867 72.1107 20.0089C72.1107 20.428 72.2787 20.7634 72.6147 21.0149C72.9507 21.2664 73.4105 21.3922 73.9941 21.3922Z" fill="#2855AF"/>
  <path d="M99.6644 5.52197V24.1839H94.8632V22.8258C93.9259 23.8821 92.52 24.4103 90.6455 24.4103C89.3369 24.4103 88.1432 24.1252 87.0645 23.5551C85.9858 22.9683 85.1281 22.1383 84.4915 21.0652C83.8726 19.9921 83.5631 18.7513 83.5631 17.3429C83.5631 15.9344 83.8726 14.702 84.4915 13.6457C85.1281 12.5726 85.9858 11.751 87.0645 11.1809C88.1432 10.6108 89.3369 10.3258 90.6455 10.3258C92.3609 10.3258 93.6872 10.7953 94.6244 11.7342V5.52197H99.6644ZM91.7066 20.6125C92.5731 20.6125 93.2893 20.3274 93.8552 19.7574C94.4211 19.1705 94.704 18.3657 94.704 17.3429C94.704 16.3368 94.4211 15.5488 93.8552 14.9787C93.307 14.4086 92.5908 14.1236 91.7066 14.1236C90.8224 14.1236 90.0973 14.4086 89.5314 14.9787C88.9656 15.5488 88.6826 16.3368 88.6826 17.3429C88.6826 18.3657 88.9656 19.1705 89.5314 19.7574C90.0973 20.3274 90.8224 20.6125 91.7066 20.6125Z" fill="#2855AF"/>
  <path d="M108.504 10.3258C110.891 10.3258 112.713 10.8456 113.968 11.8851C115.224 12.9079 115.852 14.4841 115.852 16.6135V24.1839H111.157V22.4233C110.431 23.748 109.017 24.4103 106.912 24.4103C105.798 24.4103 104.835 24.2258 104.021 23.8569C103.208 23.4881 102.589 22.9934 102.164 22.373C101.757 21.7359 101.554 21.0149 101.554 20.2101C101.554 18.919 102.076 17.9213 103.119 17.2171C104.163 16.4961 105.772 16.1356 107.947 16.1356H110.812C110.723 14.6936 109.706 13.9727 107.761 13.9727C107.072 13.9727 106.373 14.0816 105.666 14.2996C104.958 14.5008 104.357 14.7859 103.862 15.1547L102.164 11.9103C102.96 11.4073 103.924 11.0216 105.056 10.7533C106.205 10.4683 107.354 10.3258 108.504 10.3258ZM108.318 21.3922C108.902 21.3922 109.415 21.258 109.857 20.9897C110.299 20.7215 110.617 20.3274 110.812 19.8077V18.6256H108.637C107.169 18.6256 106.435 19.0867 106.435 20.0089C106.435 20.428 106.603 20.7634 106.939 21.0149C107.275 21.2664 107.735 21.3922 108.318 21.3922Z" fill="#2855AF"/>
  <path d="M127.866 10.3258C129.652 10.3258 131.085 10.8288 132.163 11.8348C133.26 12.8409 133.808 14.3583 133.808 16.3871V24.1839H128.768V17.1668C128.768 15.3057 127.981 14.3751 126.407 14.3751C125.541 14.3751 124.842 14.6433 124.312 15.1799C123.799 15.7164 123.542 16.5213 123.542 17.5944V24.1839H118.502V10.5521H123.304V12.036C123.869 11.4827 124.541 11.0635 125.32 10.7785C126.098 10.4767 126.946 10.3258 127.866 10.3258Z" fill="#2855AF"/>
  <path d="M142.569 10.3258C144.956 10.3258 146.778 10.8456 148.033 11.8851C149.289 12.9079 149.917 14.4841 149.917 16.6135V24.1839H145.222V22.4233C144.497 23.748 143.082 24.4103 140.978 24.4103C139.863 24.4103 138.9 24.2258 138.086 23.8569C137.273 23.4881 136.654 22.9934 136.229 22.373C135.823 21.7359 135.619 21.0149 135.619 20.2101C135.619 18.919 136.141 17.9213 137.184 17.2171C138.228 16.4961 139.837 16.1356 142.012 16.1356H144.877C144.788 14.6936 143.772 13.9727 141.826 13.9727C141.137 13.9727 140.438 14.0816 139.731 14.2996C139.023 14.5008 138.422 14.7859 137.927 15.1547L136.229 11.9103C137.025 11.4073 137.989 11.0216 139.121 10.7533C140.27 10.4683 141.42 10.3258 142.569 10.3258ZM142.383 21.3922C142.967 21.3922 143.48 21.258 143.922 20.9897C144.364 20.7215 144.682 20.3274 144.877 19.8077V18.6256H142.702C141.234 18.6256 140.5 19.0867 140.5 20.0089C140.5 20.428 140.668 20.7634 141.004 21.0149C141.34 21.2664 141.8 21.3922 142.383 21.3922Z" fill="#2855AF"/>
  <path d="M4.64087 25.2915C8.87334 25.2915 12.0742 19.7793 14.9437 13.7618C16.3248 10.8439 17.6136 7.78677 18.9009 5.19555C20.3152 2.32147 21.7659 0.292969 23.5402 0.292969C25.0454 0.292969 26.4612 1.50765 27.871 3.41211C30.7905 7.36473 33.3167 14.0583 33.3167 18.4481C33.3167 22.1254 31.4243 25.2915 27.5443 25.2915H4.64087Z" fill="#64CDFF"/>
  <path d="M14.9437 13.7614C12.0364 7.89824 10.7188 3.59619 8.14727 3.59619C6.54838 3.59619 4.7498 5.27375 3.11914 8.01926C1.37351 10.9342 0 15.0471 0 19.4732C0 22.9675 1.71084 25.2925 4.64089 25.2925C8.87336 25.2925 12.0742 19.7803 14.9437 13.7629" fill="#2855AF"/>
</svg>
